<?xml version="1.0" encoding="UTF-8" standalone="no"?>
<!-- Created with Inkscape (http://www.inkscape.org/) -->

<svg
   version="1.1"
   id="svg2"
   xml:space="preserve"
   width="453.57999"
   height="603.21332"
   viewBox="0 0 453.57999 603.21332"
   xmlns="http://www.w3.org/2000/svg"
   xmlns:svg="http://www.w3.org/2000/svg"
   xmlns:rdf="http://www.w3.org/1999/02/22-rdf-syntax-ns#"
   xmlns:cc="http://creativecommons.org/ns#"
   xmlns:dc="http://purl.org/dc/elements/1.1/"><metadata
     id="metadata8"><rdf:RDF><cc:Work
         rdf:about=""><dc:format>image/svg+xml</dc:format><dc:type
           rdf:resource="http://purl.org/dc/dcmitype/StillImage" /><dc:title /></cc:Work></rdf:RDF></metadata><defs
     id="defs6" /><rect width="100%" height="100%" fill="#000d43" /><g
     id="g10"
     transform="matrix(1.3333333,0,0,-1.3333333,0,603.21333)"><g
       id="g20"
       transform="translate(157.6617,263.3246)"
       style="fill:#ffffff;fill-opacity:0.983373"><path
         d="m 0,0 0.369,6.651 c 0,0 23.745,-2.371 32.671,12.934 8.925,15.305 12.328,19.681 21.273,22.696 0,0 0.641,17.872 12.659,19.312 0,0 -4.18,-12.058 4.241,-18.494 0,0 4.453,-2.003 14.313,4.823 9.859,6.827 15.071,-0.485 15.071,-0.485 0,0 -8.595,-3.034 -8.848,-7.585 -0.252,-4.55 -1.924,-9.373 6.127,-9.82 8.051,-0.447 12.349,-5.25 12.582,-7.37 0,0 -8.051,0.447 -13.457,-8.382 0,0 7.917,-21.859 -3.517,-44.398 0,0 -3.344,-9.646 -32.358,-32.615 0,0 -23.9,-19.39 -10.382,-60.52 0,0 -33.081,30.277 -21.065,75.959 0,0 2.974,15.636 26.057,39.285 0,0 7.992,11.144 -2.335,14.877 0,0 -4.9,0.272 -11.784,-3.56 C 41.617,3.308 19.681,-6.008 0,0"
         style="fill:#ffffff;fill-opacity:0.983373;fill-rule:nonzero;stroke:none"
         id="path22" /></g><g
       id="g24"
       transform="translate(239.1995,218.3841)"
       style="fill:#ffffff;fill-opacity:0.983373"><path
         d="m 0,0 c 0,0 9.711,-12.793 10.607,-28.292 0.895,-15.5 -4.783,-22.909 -33.31,-56.088 0,0 -49.704,-54.124 -0.735,-76.505 0,0 -22.681,23.117 5.063,57.655 0,0 47.548,43.315 41.817,72.119 0,0 -2.163,14.609 -21.23,33.353 z"
         style="fill:#ffffff;fill-opacity:0.983373;fill-rule:nonzero;stroke:none"
         id="path26" /></g><g
       id="g28"
       transform="translate(226.2335,196.3598)"
       style="fill:#ffffff;fill-opacity:0.983373"><path
         d="M 0,0 17.284,-8.86 16.905,-15.686 -4.609,-4.748 Z"
         style="fill:#ffffff;fill-opacity:0.983373;fill-rule:nonzero;stroke:none"
         id="path30" /></g><g
       id="g32"
       transform="translate(213.5965,175.0718)"
       style="fill:#ffffff;fill-opacity:0.983373"><path
         d="M 0,0 0.98,6.529 23.818,-5.009 19.465,-9.902 Z"
         style="fill:#ffffff;fill-opacity:0.983373;fill-rule:nonzero;stroke:none"
         id="path34" /></g><g
       id="g36"
       transform="translate(212.8388,161.4199)"
       style="fill:#ffffff;fill-opacity:0.983373"><path
         d="M 0,0 12.296,-6.213 7.942,-11.106 0.193,-7.648 Z"
         style="fill:#ffffff;fill-opacity:0.983373;fill-rule:nonzero;stroke:none"
         id="path38" /></g><g
       id="g40"
       transform="translate(230.1833,115.6885)"
       style="fill:#ffffff;fill-opacity:0.983373"><path
         d="m 0,0 7.3,-3.697 2.188,-8.022 -13.827,7.088 z"
         style="fill:#ffffff;fill-opacity:0.983373;fill-rule:nonzero;stroke:none"
         id="path42" /></g><g
       id="g44"
       transform="translate(216.2992,95.6548)"
       style="fill:#ffffff;fill-opacity:0.983373"><path
         d="m 0,0 3.048,5.098 21.886,-11.354 0.533,-7.008 z"
         style="fill:#ffffff;fill-opacity:0.983373;fill-rule:nonzero;stroke:none"
         id="path46" /></g><g
       id="g48"
       transform="translate(212.4275,82.834)"
       style="fill:#ffffff;fill-opacity:0.983373"><path
         d="m 0,0 0.263,-7.125 18.94,-9.873 4.74,4.74 z"
         style="fill:#ffffff;fill-opacity:0.983373;fill-rule:nonzero;stroke:none"
         id="path50" /></g><path
       id="path54"
       style="fill:#ffffff;fill-opacity:0.983373;fill-rule:nonzero;stroke:none"
       d="m 93.5627,387.0386 c 0,0 10.607,3.143 18.134,-2.674 4.83456,-3.73624 4.80963,-2.48265 10.62572,0.25416 5.81691,2.73719 7.84716,5.20832 15.37416,1.66132 3.93589,-1.85474 3.42512,-6.45348 16.42612,-0.76248 5.11935,2.24092 9.923,5.563 17.108,1.521 7.185,-4.042 11.291,-5.538 19.16,0 7.869,5.538 11.76382,2.36339 18.57732,-0.61124 4.92289,-2.14923 9.26979,-2.51857 16.9282,0.0584 5.09111,1.71307 8.41645,-0.0777 13.65904,-2.39576 8.11513,-3.5882 14.81744,-1.10136 14.81744,-1.10136 0,0 -7.24688,-3.67752 -14.98276,-2.82096 -5.5574,0.61535 -6.15276,4.19384 -11.20004,2.30716 -5.30484,-1.98296 -9.65219,-3.18147 -14.80708,-2.1996 -4.77894,0.91027 -11.61016,7.05488 -16.05816,5.40788 -4.448,-1.647 -7.09716,-5.24156 -11.88716,-5.58356 -4.79,-0.342 -6.25932,-0.342 -10.70732,0.342 -4.448,0.684 -6.92148,3.47708 -10.34248,3.87108 -3.422,0.394 -10.265,-4.704 -13.344,-4.892 -3.079,-0.188 -7.527,-2.241 -13.344,1.865 -5.816,4.106 -10.85512,1.43565 -14.028,-0.342 -5.78691,-3.2422 -10.87067,-2.05011 -14.63452,0.34512 -3.76315,2.39477 -7.26248,6.71288 -15.47448,5.74988" /><g
       id="g56"
       transform="translate(105.9409,333.9113)"
       style="fill:#ffffff;fill-opacity:0.983373"><path
         d="m 0,0 -1.386,14.793 c 0,0 -1.472,1.886 -3.043,0.048 C -6,13.002 -54.088,-37.644 -54.088,-37.644 l 2.937,-29.211 4.117,-58.603 55.261,-46.822 c 0,0 3.779,-0.729 2.515,2.312 -1.264,3.041 -5.255,77.429 -5.255,77.429 0,0 -0.844,3.252 -3.051,5.557 -2.207,2.305 -48.958,42.109 -48.958,42.109 0,0 -1.05,0.523 -0.11,3.358 C -45.692,-38.681 0,0 0,0"
         style="fill:#ffffff;fill-opacity:0.983373;fill-rule:nonzero;stroke:none"
         id="path58" /></g><g
       id="g60"
       transform="translate(84.2042,273.6505)"
       style="fill:#ffffff;fill-opacity:0.983373"><path
         d="m 0,0 35.079,-22.298 c 0,0 2.416,-2.2 2.104,-4.194 -0.311,-1.994 6.415,-81.31 6.415,-81.31 0,0 -1.182,-2.169 -2.899,-1.455 l -9.075,6.647 -0.494,6.214 5.676,-5.102 c 0,0 2.588,-1.064 2.161,3.447 l -4.825,70.295 c 0,0 -0.11,3.882 -3.575,5.556 z"
         style="fill:#ffffff;fill-opacity:0.983373;fill-rule:nonzero;stroke:none"
         id="path62" /></g><g
       id="g64"
       transform="translate(94.581,281.2206)"
       style="fill:#ffffff;fill-opacity:0.983373"><path
         d="m 0,0 31.276,-4.781 c 0,0 2.309,-0.416 2.733,-3.354 0.424,-2.937 6.726,-79.316 6.726,-79.316 0,0 0.004,-2.623 -2.304,-2.731 l -7.478,1.901 -0.406,4.907 3.784,-1.253 c 0,0 1.679,-0.207 1.674,2.941 -0.004,3.147 -4.72,70.609 -4.72,70.609 0,0 0.311,2.519 -2.943,3.249 C 25.088,-7.098 0,0 0,0"
         style="fill:#ffffff;fill-opacity:0.983373;fill-rule:nonzero;stroke:none"
         id="path66" /></g><g
       id="g68"
       transform="translate(94.3544,292.6575)"
       style="fill:#ffffff;fill-opacity:0.983373"><path
         d="m 0,0 38.081,5.197 c 0,0 2.098,0.528 3.048,-2.933 0.949,-3.461 4.526,-81.208 4.526,-81.208 0,0 -0.046,-1.861 -1.963,-2.297 -1.916,-0.437 -4.186,-0.062 -4.186,-0.062 l -0.433,5.211 c 0,0 3.313,-0.292 2.949,1.888 l -5.189,71.95 c 0,0 -0.004,3.147 -3.152,3.143 z"
         style="fill:#ffffff;fill-opacity:0.983373;fill-rule:nonzero;stroke:none"
         id="path70" /></g><g
       id="g72"
       transform="translate(83.9537,301.3513)"
       style="fill:#ffffff;fill-opacity:0.983373"><path
         d="m 0,0 36.071,16.527 c 0,0 3.252,0.319 3.256,-2.304 l 0.623,-18.884 4.712,0.643 -1.88,23.388 c 0,0 -0.215,3.567 -3.78,1.778 z"
         style="fill:#ffffff;fill-opacity:0.983373;fill-rule:nonzero;stroke:none"
         id="path74" /></g><g
       id="g76"
       transform="translate(68.1163,301.0997)"
       style="fill:#ffffff;fill-opacity:0.983373"><path
         d="m 0,0 43.069,34.393 c 0,0 0.63,-0.733 1.052,-2.097 0.422,-1.363 1.216,-16.049 1.216,-16.049 l 5.556,2.788 -2.687,21.874 c 0,0 0.096,2.411 -2.839,0.413 -2.935,-1.998 -10.795,-8.305 -10.795,-8.305 z"
         style="fill:#ffffff;fill-opacity:0.983373;fill-rule:nonzero;stroke:none"
         id="path78" /></g></g></svg>
